<svg id="Layer_1" enable-background="new 0 0 256 256" height="512" viewBox="0 0 256 256" width="512" xmlns="http://www.w3.org/2000/svg"><g><path d="m141.322 53.195.006-.001c0-.042-.005-.082-.006-.124v-.005c-.063-6.387-4.722-11.544-10.467-11.544s-10.404 5.157-10.467 11.544h-.006v-19.709c0-7.979-5.803-14.447-12.961-14.447-7.113 0-12.879 6.427-12.879 14.356v-12.59c0-7.954-5.785-14.402-12.92-14.402-7.136 0-12.92 6.448-12.92 14.402v12.635c0-7.954-5.785-14.401-12.92-14.401-7.136 0-12.92 6.448-12.92 14.401v41.513l.063-.014v10.539l-11.124-11.05c-5.974-5.935-15.66-5.935-21.635 0-5.974 5.935-5.974 15.557 0 21.491l24.307 24.146c3.018 2.998 5.291 6.521 6.716 10.324 3.102 8.282 2.807 16.068 8.599 22.751l4.652 5.369c1.445 1.667 2.24 3.8 2.24 6.006v69.641c0 8.246 6.684 14.93 14.93 14.93h41.304c8.246 0 14.93-6.684 14.93-14.93v-68.737c0-1.918.601-3.787 1.719-5.345l5.131-7.152c4.316-6.016 6.637-13.233 6.637-20.637v-10.243h-.006v-68.717z" fill="#ffbb98"/><path d="m141.32 121.916h.01v10.24c0 7.4-2.32 14.62-6.64 20.63l-5.13 7.16c-1.12 1.56-1.72 3.42-1.72 5.34v68.74c0 8.25-6.68 14.93-14.93 14.93h-15c8.25 0 14.93-6.68 14.93-14.93v-68.74c0-1.92.6-3.78 1.72-5.34l5.13-7.16c4.32-6.01 6.64-13.23 6.64-20.63v-10.24h-.01v-68.72h.01c0-.04-.01-.08-.01-.13-.03-3.12-1.16-5.94-2.96-8.02 1.9-2.18 4.56-3.53 7.5-3.53 2.87 0 5.47 1.29 7.36 3.38s3.07 4.98 3.1 8.17c0 .05.01.09.01.13h-.01z" fill="#ffaa80"/><path d="m86.61 248.956h-15c-8.25 0-14.93-6.68-14.93-14.93v-69.64c0-2.21-.8-4.34-2.24-6.01l-4.65-5.37c-5.8-6.68-5.5-14.47-8.6-22.75-1.43-3.8-3.7-7.32-6.72-10.32l-24.31-24.15c-2.99-2.97-4.48-6.85-4.48-10.74s1.49-7.78 4.48-10.75c4.97-4.93 12.49-5.76 18.32-2.49-1.19.66-2.31 1.49-3.32 2.49-2.99 2.97-4.48 6.86-4.48 10.75s1.49 7.77 4.48 10.74l24.31 24.15c3.02 3 5.29 6.52 6.72 10.32 3.1 8.28 2.8 16.07 8.6 22.75l4.65 5.37c1.44 1.67 2.24 3.8 2.24 6.01v69.64c0 8.25 6.68 14.93 14.93 14.93z" fill="#ffcaa6"/><circle cx="84.674" cy="203.571" fill="#ff4a73" r="13.25"/><path d="m91.17 215.116c-1.92 1.08-4.14 1.7-6.5 1.7-7.31 0-13.25-5.93-13.25-13.25 0-7.31 5.94-13.25 13.25-13.25 2.36 0 4.58.62 6.5 1.7-4.03 2.28-6.75 6.6-6.75 11.55 0 4.96 2.72 9.28 6.75 11.55z" fill="#f973a3"/><path d="m104.205 184.905-.864-.865c-3.905-3.905-3.905-10.237 0-14.142l20.178-20.178 15.007 15.007-20.178 20.178c-3.907 3.906-10.238 3.906-14.143 0z" fill="#5fcdff"/><path d="m131.02 157.216-24.43 24.43c-1 1-1.75 2.17-2.23 3.41-.05-.05-.1-.1-.15-.15l-.87-.87c-3.9-3.9-3.9-10.23 0-14.14l20.18-20.18z" fill="#73d7f9"/><path d="m122.21 167.764-1.729-1.729c-7.81-7.81-7.81-20.474 0-28.284l63.63-63.63 30.013 30.013-63.63 63.63c-7.81 7.811-20.473 7.811-28.284 0z" fill="#5fcdff"/><path d="m199.906 50.484h30.438v45.273h-30.438z" fill="#5fcdff" transform="matrix(.707 .707 -.707 .707 114.713 -130.7)"/><path d="m185.48 60.808h45.269v10.607h-45.269z" fill="#73d7f9" transform="matrix(.707 -.707 .707 .707 14.208 166.523)"/><path d="m199.5 74.828h45.269v10.607h-45.269z" fill="#30b6ff" transform="matrix(.707 -.707 .707 .707 8.401 180.543)"/><path d="m191.61 81.616-76.12 76.12c-2.08-6.84-.42-14.58 4.99-19.99l63.63-63.63z" fill="#73d7f9"/><path d="m214.13 104.136-63.63 63.63c-5.86 5.85-14.43 7.32-21.65 4.41 2.42-.98 4.69-2.45 6.65-4.41l71.13-71.13z" fill="#30b6ff"/><path d="m253.45 74.236c-4.934-4.934-33.683-33.683-39.22-39.22-3.737-3.737-9.4 1.92-5.66 5.66l6.02 6.02-26.35 26.36c-5.42-5.42-8.583-8.583-14.77-14.77-3.725-3.724-9.404 1.892-5.66 5.66l10.52 10.52-33.13 33.13c0-.069.006-54.321 0-54.39-.229-11.509-11.475-18.863-20.94-13.67v-5.84c0-14.583-14.873-23.337-26.05-15.56-2.972-20.545-30.459-20.613-33.43.02-11.125-7.783-26.04.85-26.04 15.5 0 43.516.06 42.42.06 42.42l-4.3-4.28c-18.023-17.879-45.301 9.248-27.28 27.17l24.31 24.15c2.6 2.58 4.55 5.57 5.79 8.88 2.986 7.973 2.767 16.413 9.32 23.98 4.821 5.547 5.92 6.295 5.92 8.75v69.64c0 10.44 8.49 18.93 18.93 18.93h41.3c10.44 0 18.93-8.49 18.93-18.93v-56.84c7.342 1.429 15.545-.655 21.48-6.59 7.204-7.204 53.915-53.915 60.8-60.8l10.52 10.52c3.789 3.741 9.377-1.943 5.66-5.66-5.035-5.035-12.171-12.171-14.76-14.76l26.35-26.36 6.02 6.02c3.719 3.719 9.439-1.88 5.66-5.66zm-129.95 100.08-8.1 8.1c-2.318 2.339-6.152 2.359-8.49 0l-.86-.86c-2.339-2.318-2.359-6.152 0-8.49l8.11-8.1c1.226 2.207 6.097 7.5 9.34 9.35zm.22 60.05c0 6.03-4.9 10.93-10.93 10.93h-41.3c-6.03 0-10.93-4.9-10.93-10.93v-69.64c0-5.985-3.374-8.807-7.88-13.99-4.998-5.768-4.669-13.033-7.87-21.55-1.65-4.4-4.23-8.35-7.64-11.75l-24.31-24.15c-10.521-10.422 5.471-26.291 16-15.81l11.12 11.05c2.511 2.489 6.82.719 6.82-2.84 0 0-.06-14.723-.06-52.03 0-13.505 17.441-13.918 17.83-.36v45.07c0 5.284 8 5.295 8 0 0-6.422.01-50.928.01-57.35 0-13.714 17.84-13.785 17.84 0 0 28.243-.01-9.667-.01 57.35 0 5.281 8 5.293 8 0 0-46.124.01-44.76.01-44.76 0-13.762 17.84-13.675 17.84.09v44.67c0 5.306 8 5.273 8 0 0-25.765.01-24.92.01-24.92.096-10.037 12.834-9.952 12.93-.04v62.19c-21.404 21.404-20.204 20.14-21.27 21.44-5.175 6.291-5.883 12.654-4.99 19.83l-10.55 10.54c-4.709 4.709-5.301 11.832-2.1 17.11l-4.71 4.71c-2.63-1.63-5.72-2.56-9.03-2.56-9.51 0-17.25 7.73-17.25 17.25 0 9.51 7.74 17.25 17.25 17.25 9.52 0 17.25-7.74 17.25-17.25 0-3.31-.93-6.4-2.56-9.03l4.71-4.71c5.285 3.205 12.408 2.602 17.11-2.1l2.66-2.66zm-39.17-21.2c-5.1 0-9.25-4.15-9.25-9.25 0-6.377 6.346-10.846 12.32-8.73l-5.38 5.38c-3.739 3.738 1.932 9.388 5.66 5.66l5.38-5.38c2.111 5.962-2.34 12.32-8.73 12.32zm110.41-95.3-12.18-12.18c-3.726-3.75-9.402 1.922-5.65 5.65l12.18 12.18-14.19 14.19-12.18-12.18c-3.74-3.74-9.4 1.92-5.66 5.66l12.18 12.18-14.18 14.18-12.18-12.18c-3.768-3.744-9.385 1.935-5.66 5.66l12.18 12.18-2.07 2.07c-6.585 6.585-17.056 5.866-22.63 0l-1.73-1.73c-6.293-6.294-6.22-16.4 0-22.62l60.8-60.8 24.36 24.36zm41.15-49.65-26.35 26.36-15.87-15.87 26.36-26.35c5.905 5.906 9.956 9.957 15.86 15.86z" fill="#5f266d"/></g></svg>