<svg height="511pt" viewBox="1 -1 511.99987 511" width="511pt" xmlns="http://www.w3.org/2000/svg"><path d="m170.109375 383.648438c.007813.011718-12.152344 12.1875.015625.019531l-23.683594 23.679687c-10.644531 10.644532-27.902344 10.644532-38.546875 0l-3.878906-3.878906c-10.644531-10.644531-10.644531-27.902344 0-38.546875l22.734375-22.734375c.007812-.007812-13.121094 13.152344.015625.015625" fill="#808080"/><path d="m234.574219 184.269531 87.113281-87.113281 90.503906 90.503906-87.113281 87.113282zm0 0" fill="#e6e6e6"/><path d="m234.574219 184.269531-92.433594 92.433594c-24.992187 24.992187-24.992187 65.515625 0 90.507813 24.992187 24.996093 65.511719 24.996093 90.507813 0l92.433593-92.433594zm0 0" fill="#7dd0e2"/><path d="m409.886719 68.476562 33.425781 33.425782-58.4375 58.433594-33.425781-33.425782zm0 0" fill="#e6e6e6"/><path d="m464.945312 123.535156-76.691406-76.691406c-6.542968-6.539062-6.542968-17.148438 0-23.6875l7.699219-7.699219c6.539063-6.542969 17.148437-6.542969 23.6875 0l76.695313 76.691407c6.539062 6.542968 6.539062 17.148437 0 23.691406l-7.699219 7.695312c-6.542969 6.542969-17.148438 6.542969-23.691407 0zm0 0" fill="#535272"/><path d="m504.160156 85.03125-76.691406-76.691406c-10.457031-10.453125-27.46875-10.453125-37.925781 0l-7.695313 7.699218c-10.457031 10.453126-10.457031 27.464844 0 37.921876l14.515625 14.515624-44.203125 44.203126-43.304687-43.304688c-3.929688-3.929688-10.300781-3.929688-14.234375 0-3.929688 3.929688-3.929688 10.304688 0 14.234375l13.542968 13.542969-79.996093 80-92.4375 92.433594c-13.984375 13.988281-21.691407 32.589843-21.691407 52.371093 0 5.925781.707032 11.742188 2.050782 17.363281l-18.484375 18.484376c-12.464844 12.464843-14.238281 31.621093-5.351563 46.003906l-89.304687 89.308594c-3.933594 3.929687-3.933594 10.304687 0 14.234374 1.964843 1.964844 4.539062 2.945313 7.113281 2.945313 2.578125 0 5.152344-.980469 7.117188-2.945313l88.945312-88.949218c6.300781 4.539062 13.835938 6.996094 21.753906 6.996094 9.964844 0 19.339844-3.882813 26.386719-10.929688l19.785156-19.78125c4.582031.875 9.28125 1.332031 14.050781 1.332031 19.785157 0 38.382813-7.703125 52.371094-21.691406l33.402344-33.402344s.003906-.003906.003906-.003906l32.3125-32.3125c0-.003906.003906-.003906.003906-.003906.003907 0 .003907-.003907.003907-.003907l26.707031-26.707031s0 0 .003906-.003906l79.996094-79.996094 13.542969 13.542969c1.964843 1.964844 4.542969 2.949219 7.117187 2.949219 2.574219 0 5.152344-.984375 7.117188-2.949219 3.929687-3.929688 3.929687-10.300781 0-14.234375l-40.863282-40.863281 44.203126-44.203125 14.515624 14.515625c5.066407 5.066406 11.800782 7.855468 18.960938 7.855468 7.164062 0 13.898438-2.789062 18.964844-7.855468l7.695312-7.695313c10.453125-10.457031 10.453125-27.46875 0-37.925781zm-364.125 315.203125c-3.25 3.246094-7.566406 5.035156-12.15625 5.035156-4.59375 0-8.910156-1.789062-12.15625-5.035156l-3.882812-3.882813c-6.703125-6.703124-6.703125-17.609374 0-24.3125l12.449218-12.449218c3.144532 5.308594 6.96875 10.257812 11.445313 14.738281 5.191406 5.191406 11.019531 9.511719 17.304687 12.898437zm159.042969-112.976563-29.746094-29.746093c-3.929687-3.929688-10.300781-3.929688-14.230469 0-3.929687 3.929687-3.929687 10.300781 0 14.230469l29.742188 29.746093-18.085938 18.085938-19.421874-19.421875c-3.929688-3.929688-10.300782-3.929688-14.230469 0-3.933594 3.929687-3.933594 10.304687 0 14.234375l19.421875 19.421875-18.089844 18.085937-29.746094-29.746093c-3.929687-3.929688-10.300781-3.929688-14.230468 0-3.929688 3.929687-3.929688 10.300781 0 14.230468l29.265624 29.269532c-9.140624 6.644531-20.105468 10.242187-31.625 10.242187-14.40625 0-27.953124-5.609375-38.140624-15.796875-5.695313-5.695312-9.957032-12.441406-12.609376-19.796875-.160156-.832031-.433593-1.644531-.804687-2.425781-1.566406-5.089844-2.382813-10.4375-2.382813-15.914063 0-14.40625 5.609376-27.953125 15.796876-38.140625l85.320312-85.316406 76.273438 76.273438zm99.59375-99.597656-14.425781 14.425782-15.914063-15.914063c-3.933593-3.933594-10.300781-3.933594-14.234375 0-3.929687 3.929687-3.929687 10.300781 0 14.230469l15.917969 15.917968-14.847656 14.847657-29.746094-29.746094c-3.929687-3.929687-10.300781-3.929687-14.234375 0-3.929688 3.933594-3.929688 10.304687 0 14.234375l29.746094 29.746094-15.140625 15.140625-76.273438-76.273438 72.878907-72.878906 38.136718 38.136719zm31.117187-85.757812-44.203124 44.207031-19.191407-19.195313 44.203125-44.203124zm60.136719 6.820312-7.695312 7.695313c-1.261719 1.265625-2.941407 1.960937-4.730469 1.960937-1.785156 0-3.464844-.695312-4.726562-1.957031l-55.058594-55.058594s0 0-.003906-.003906l-21.628907-21.628906c-2.609375-2.609375-2.609375-6.851563 0-9.457031l7.695313-7.699219c1.304687-1.304688 3.015625-1.957031 4.730468-1.957031 1.710938 0 3.421876.652343 4.726563 1.957031l76.691406 76.691406c2.609375 2.605469 2.609375 6.851563 0 9.457031zm0 0"/><path d="m217.117188 270.195312-.617188-.382812c-4.730469-2.925781-10.929688-1.464844-13.855469 3.261719-2.925781 4.726562-1.464843 10.929687 3.261719 13.855469l.617188.382812c1.652343 1.019531 3.480468 1.507812 5.289062 1.507812 3.371094 0 6.664062-1.695312 8.566406-4.769531 2.925782-4.726562 1.464844-10.929687-3.261718-13.855469zm0 0"/></svg>