<?xml version="1.0" encoding="iso-8859-1"?>
<!-- Generator: Adobe Illustrator 19.0.0, SVG Export Plug-In . SVG Version: 6.00 Build 0)  -->
<svg version="1.1" id="Capa_1" xmlns="http://www.w3.org/2000/svg" xmlns:xlink="http://www.w3.org/1999/xlink" x="0px" y="0px"
	 viewBox="0 0 511.999 511.999" style="enable-background:new 0 0 511.999 511.999;" xml:space="preserve">
<path style="fill:#FFB125;" d="M362.532,211.312l-6.44-101.733c-2.36-37.284-33.288-66.316-70.646-66.316h-58.892
	c-37.359,0-68.286,29.032-70.646,66.316l-6.44,101.733c-1.469,23.21,16.959,42.842,40.215,42.842h132.634
	C345.573,254.154,364.001,234.522,362.532,211.312z"/>
<path style="fill:#FF901D;" d="M362.532,211.312l-6.44-101.733c-2.36-37.284-33.288-66.316-70.646-66.316h-11.019
	c16.092,0,29.414,12.505,30.431,28.565L316.4,254.152h5.918C345.573,254.154,364.001,234.522,362.532,211.312z"/>
<g>
	<path style="fill:#FFE7CF;" d="M236.203,445.188c8.212,16.223,31.381,16.224,39.592,0l65.313-129.035l-21.045-5.111
		c-9.759-1.961-16.779-13.281-16.779-23.235v-44.357H256l0,0h-47.284v44.357c0,9.954-7.021,21.274-16.779,23.235l-21.045,5.11
		L236.203,445.188z"/>
	<path style="fill:#FFE7CF;" d="M344.807,153.103h-5.668l0,0c0-3.148-2.412-5.77-5.547-6.052
		c-75.539-6.797-100.37-27.965-120.977-49.34c-3.667-3.804-39.185,11.192-39.755,46.057v9.335h-5.668
		c-8.31,0-15.047,6.737-15.047,15.047v16.675c0,8.31,6.737,15.047,15.047,15.047h5.691c0.469,21.838,15.896,42.857,32.475,57.133
		c13.347,11.492,25.858,21.524,50.642,21.8c24.784-0.277,37.295-10.308,50.642-21.8c16.579-14.275,32.006-35.295,32.475-57.133
		h5.691c8.31,0,15.047-6.737,15.047-15.047V168.15C359.854,159.84,353.118,153.103,344.807,153.103z"/>
</g>
<path style="fill:#F4D5BA;" d="M339.139,153.103c0-3.148-2.412-5.77-5.547-6.052c-16.88-1.519-31.221-3.757-43.555-6.553
	l-0.014,59.373c-0.469,21.838-15.896,42.857-32.475,57.133c-8.044,6.926-15.788,13.318-26.094,17.367
	c6.794,2.67,14.7,4.323,24.547,4.433c24.784-0.276,37.295-10.308,50.642-21.8c16.579-14.275,32.006-35.295,32.475-57.133
	L339.139,153.103z"/>
<path style="fill:#24D9DE;" d="M319.121,18.138l-42.908-8.712c-12.696-2.578-25.78-2.578-38.475,0l-42.908,8.712
	c-6.729,1.366-10.621,8.448-8.167,14.861l10.799,28.218c2.672,6.982,9.373,11.592,16.848,11.592h85.33
	c7.475,0,14.176-4.61,16.848-11.592l10.799-28.218C329.743,26.586,325.851,19.505,319.121,18.138z"/>
<path style="fill:#11B9C1;" d="M319.121,18.138l-22.039-4.475l-23.199,54.695c-1.026,2.681-3.599,4.452-6.47,4.452h32.228
	c7.475,0,14.176-4.61,16.848-11.592L327.288,33C329.743,26.586,325.851,19.505,319.121,18.138z"/>
<path style="fill:#24D9DE;" d="M467.58,487.687l-21.85-127.916c-1.877-10.986-9.807-19.965-20.477-23.185l-98.082-29.594
	c-4.111-1.24-8.52,0.647-10.459,4.479l-46.831,92.521c-5.758,11.376-22.004,11.376-27.762,0l-46.831-92.521
	c-1.939-3.831-6.348-5.719-10.459-4.479l-98.083,29.594c-10.67,3.219-18.601,12.198-20.477,23.185l-21.85,127.916
	c-1.504,8.802,5.277,16.84,14.207,16.84h394.746C462.302,504.527,469.083,496.488,467.58,487.687z"/>
<path style="fill:#11B9C1;" d="M467.58,487.687l-21.85-127.916c-1.877-10.986-9.807-19.965-20.477-23.185l-98.083-29.594
	c-4.111-1.24-8.52,0.648-10.459,4.479l-10.447,20.64l78.436,23.666c5.437,1.64,9.477,6.215,10.433,11.813l23.39,136.936h34.848
	C462.302,504.527,469.083,496.488,467.58,487.687z"/>
<path style="fill:#E1EFFB;" d="M242.119,403.993c5.758,11.376,22.004,11.376,27.762,0l36.542-72.195H205.576L242.119,403.993z"/>
<path style="fill:#F4D5BA;" d="M303.284,287.807v-27.941c-8.574,7.213-17.264,13.526-29.573,16.722v28.497
	c0,9.954,7.021,21.274,16.779,23.235l15.755,3.826l10.465-20.675c0.219-0.433,0.474-0.838,0.753-1.22
	C309.087,306.995,303.284,296.849,303.284,287.807z"/>
<path d="M242.833,47.145h5.69v5.69c0,4.129,3.347,7.476,7.476,7.476c4.129,0,7.476-3.347,7.476-7.476v-5.69h5.69
	c4.129,0,7.476-3.347,7.476-7.476s-3.347-7.476-7.476-7.476h-5.69v-5.691c0-4.129-3.347-7.476-7.476-7.476s-7.476,3.347-7.476,7.476
	v5.691h-5.69c-4.129,0-7.476,3.347-7.476,7.476S238.704,47.145,242.833,47.145z"/>
<path d="M474.949,486.428L453.1,358.512c-2.37-13.874-12.213-25.018-25.688-29.083l-98.081-29.593
	c-4.326-1.305-8.815-0.737-12.543,1.298c-3.486-3.104-6.028-8.412-6.028-13.327v-24.484c0.253-0.218,0.507-0.436,0.759-0.653
	c0.377-0.325,0.778-0.676,1.19-1.041h9.607c13.335,0,25.705-5.354,34.831-15.076s13.689-22.405,12.846-35.713l-2.662-42.061v-0.63
	c0-1.148-0.087-2.275-0.254-3.378l-2.982-47.106c-0.261-4.121-3.823-7.248-7.933-6.99c-4.121,0.261-7.25,3.813-6.989,7.934
	l1.764,27.871c-1.95-0.552-4.005-0.855-6.13-0.855h-0.417c-2.197-3.334-5.842-5.635-10.129-6.021
	c-77.606-6.984-99.949-30.16-116.265-47.084c-3.391-3.517-8.953-3.786-16.53-0.799c-13.171,5.191-35.592,21.967-36.082,51.922
	c0,0.041-0.001,0.082-0.001,0.123v1.931c-1.486,0.119-2.93,0.387-4.322,0.781l2.306-36.428
	c1.227-19.379,10.983-36.654,26.546-47.641l0.566,1.479c3.753,9.807,13.33,16.396,23.831,16.396h85.33
	c10.5,0,20.077-6.589,23.831-16.396l0.131-0.342c8.078,6.087,14.564,13.982,18.98,23.209c1.285,2.683,3.96,4.25,6.749,4.25
	c1.082,0,2.181-0.237,3.222-0.735c3.725-1.782,5.299-6.247,3.516-9.971c-6.083-12.709-15.332-23.378-26.947-31.177l5.148-13.453
	c1.957-5.114,1.566-10.799-1.071-15.597c-2.637-4.797-7.226-8.174-12.591-9.263L277.7,2.095c-13.753-2.794-27.698-2.794-41.451,0
	l-42.907,8.712c-5.365,1.089-9.955,4.465-12.592,9.264s-3.028,10.483-1.07,15.597l4.754,12.421
	c-21.079,13.41-34.391,35.764-35.989,61.015l-3.543,55.964c-0.139,1.009-0.235,2.031-0.235,3.078v0.63l-2.662,42.061
	c-0.843,13.307,3.72,25.991,12.846,35.713c9.126,9.722,21.496,15.076,34.831,15.076h9.607c0.412,0.364,0.813,0.716,1.19,1.041
	c0.252,0.217,0.506,0.435,0.759,0.653v24.484c0,4.915-2.542,10.224-6.028,13.327c-3.728-2.035-8.218-2.605-12.542-1.299
	l-98.082,29.594c-13.474,4.065-23.317,15.21-25.688,29.083l-8.207,48.051c-0.695,4.07,2.041,7.933,6.111,8.628
	c4.066,0.701,7.933-2.04,8.628-6.111l8.207-48.051c1.409-8.245,7.259-14.869,15.267-17.285l98.083-29.595
	c0.642-0.193,1.325,0.101,1.628,0.697c0,0.001,0.002,0.003,0.002,0.004l0,0l46.829,92.518c1.232,2.435,2.849,4.582,4.755,6.382
	c4.194,3.962,9.792,6.249,15.796,6.249l0,0c3.821,0,7.477-0.926,10.712-2.621c4.159-2.179,7.621-5.628,9.84-10.011l46.831-92.521
	c0.302-0.598,0.986-0.895,1.629-0.697l98.082,29.594c8.009,2.416,13.859,9.04,15.267,17.285l21.849,127.915
	c0.473,2.765-0.759,4.721-1.536,5.641s-2.497,2.464-5.302,2.464h-46.314l-12.219-71.532c-0.695-4.07-4.555-6.809-8.628-6.111
	c-4.07,0.695-6.806,4.558-6.111,8.628l11.789,69.014H120.111l11.789-69.014c0.695-4.07-2.041-7.933-6.111-8.628
	c-4.068-0.696-7.933,2.04-8.628,6.111l-12.219,71.532H58.627c-2.805,0-4.526-1.544-5.302-2.464s-2.008-2.877-1.536-5.641
	l7.606-44.529c0.695-4.07-2.041-7.933-6.111-8.628c-4.068-0.698-7.933,2.041-8.628,6.111l-7.606,44.529
	c-1.088,6.372,0.678,12.861,4.846,17.801s10.266,7.774,16.731,7.774l0,0c0.008,0,0,0,0.008,0c0.007,0-0.015,0-0.008,0h394.746
	c0.007,0,0,0,0.007,0c0.008,0-0.015,0-0.007,0l0,0c6.464,0,12.562-2.834,16.731-7.774
	C474.271,499.288,476.038,492.799,474.949,486.428z M193.856,27.276c0.303-0.551,1.026-1.52,2.463-1.812l42.907-8.713
	c5.89-1.195,11.819-1.793,17.75-1.793c5.929,0,11.861,0.598,17.749,1.793l42.908,8.713c0,0,0,0,0.001,0.001
	c1.436,0.291,2.159,1.26,2.462,1.811c0.303,0.552,0.734,1.681,0.21,3.051l-10.799,28.218c-1.554,4.06-5.519,6.788-9.866,6.788
	h-85.33c-4.347,0-8.312-2.728-9.866-6.788l-10.799-28.218C193.122,28.958,193.553,27.828,193.856,27.276z M355.071,211.785
	c0.578,9.143-2.556,17.855-8.826,24.534c-5.091,5.424-11.652,8.869-18.844,9.972c8.22-10.176,16.291-23.622,18.569-38.973
	c3.1-0.158,6.029-0.959,8.676-2.251L355.071,211.785z M165.754,236.319c-6.27-6.679-9.404-15.392-8.826-24.534l0.425-6.717
	c2.647,1.292,5.576,2.092,8.676,2.251c2.277,15.35,10.349,28.796,18.569,38.973C177.406,245.188,170.845,241.743,165.754,236.319z
	 M264.148,398.763l-0.938,1.853c-0.133,0.263-0.289,0.507-0.444,0.749c-0.05,0.077-0.09,0.163-0.141,0.238
	c-0.094,0.137-0.205,0.255-0.306,0.385c-0.359,0.459-0.749,0.887-1.188,1.25c-0.092,0.076-0.196,0.137-0.291,0.209
	c-1.359,1.022-3.024,1.601-4.841,1.601c-3.11,0-5.806-1.657-7.211-4.431l-31.048-61.343h76.52L264.148,398.763z M301.828,324.32
	h-91.657l-5.775-11.41c7.045-5.893,11.796-15.514,11.796-25.104v-12.9c9.787,6.294,22.034,11.176,39.725,11.374
	c0.028,0,0.055,0,0.083,0c0.028,0,0.055,0,0.083,0c17.691-0.198,29.938-5.08,39.725-11.373v12.9c0,9.591,4.75,19.211,11.796,25.104
	L301.828,324.32z M301.763,251.339c-13.825,11.906-24.484,19.731-45.763,19.988c-21.278-0.257-31.937-8.083-45.763-19.988
	c-18.354-15.803-29.524-35.103-29.879-51.628c-0.087-4.065-3.408-7.316-7.474-7.316h-5.691c-4.175,0-7.571-3.396-7.571-7.571
	v-16.675c0-0.349,0.032-0.689,0.078-1.026c0.021-0.114,0.037-0.229,0.053-0.344c0.647-3.522,3.734-6.201,7.441-6.201h5.668
	c4.129,0,7.476-3.347,7.476-7.476v-9.271c0.448-25.305,21.986-37.13,28.807-38.965c21.925,22.366,48.871,42.705,122.63,49.527
	c0.611,3.513,3.676,6.185,7.365,6.185h5.668c3.706,0,6.793,2.679,7.441,6.201c0.016,0.116,0.032,0.231,0.053,0.344
	c0.046,0.336,0.078,0.677,0.078,1.026v16.675c0,4.174-3.396,7.571-7.571,7.571h-5.691c-4.067,0-7.387,3.25-7.474,7.316
	C331.287,216.235,320.117,235.535,301.763,251.339z"/>
<g>
</g>
<g>
</g>
<g>
</g>
<g>
</g>
<g>
</g>
<g>
</g>
<g>
</g>
<g>
</g>
<g>
</g>
<g>
</g>
<g>
</g>
<g>
</g>
<g>
</g>
<g>
</g>
<g>
</g>
</svg>
